<svg width="20" height="20" viewBox="0 0 20 20" fill="none" xmlns="http://www.w3.org/2000/svg">
<g clip-path="url(#clip0_380_543)">
<path fill-rule="evenodd" clip-rule="evenodd" d="M14.699 14.9221C14.0826 14.1494 13.4142 13.1823 12.9377 12.1655C12.5189 11.2721 12.2486 10.3394 12.2882 9.46122C12.3085 9.01378 12.4133 8.58958 12.5862 8.20622C12.5912 8.1951 12.5903 8.18318 12.5837 8.1729C12.577 8.16266 12.5666 8.15694 12.5544 8.15694H12.0382C12.0307 8.15694 12.0243 8.15894 12.0182 8.16318L11.4948 8.52702C11.4945 8.52726 11.4942 8.52746 11.4939 8.5277C10.4978 9.2703 10.4998 9.42514 10.5037 9.72202C10.507 9.97218 10.5112 10.2927 10.2706 10.8591C10.1897 11.0497 10.0841 11.2289 9.95092 11.395C9.8362 11.538 9.63152 11.7407 9.46388 11.8524L8.57035 12.4481L8.56988 12.4474C8.49484 12.4975 8.44828 12.5549 8.4146 12.6391L8.12788 13.3533C8.12748 13.3543 8.12712 13.3551 8.12664 13.3561C7.91468 13.7738 7.57824 14.045 7.12384 14.1553C6.76067 14.2434 6.60784 14.1948 6.26204 14.2039C6.14224 14.2071 6.0188 14.2157 5.89188 14.2295C5.1676 14.3086 5.07247 14.3799 4.55515 14.8975C4.05555 15.3975 3.62375 16.1756 3.28011 16.8417C3.27435 16.8528 3.27479 16.8652 3.28131 16.8759C3.28783 16.8866 3.29859 16.8926 3.31115 16.8926H17.9842C17.9956 16.8926 18.0054 16.8877 18.0122 16.8786C18.019 16.8695 18.0209 16.8587 18.0176 16.8477L17.0909 13.7431C17.0869 13.7299 17.0763 13.7206 17.0626 13.7186C17.049 13.7165 17.0361 13.7221 17.0284 13.7337C16.7418 14.1606 16.4362 14.5607 16.133 14.9215C16.1241 14.9322 16.1222 14.9461 16.1281 14.9587C16.134 14.9713 16.1459 14.9789 16.1598 14.9789H16.855C16.9996 14.9789 17.1169 15.0962 17.1169 15.2409C17.1169 15.3855 16.9996 15.5028 16.855 15.5028C15.8893 15.5028 14.9236 15.5028 13.9579 15.5028C13.8132 15.5028 13.696 15.3855 13.696 15.2409C13.696 15.0962 13.8132 14.9789 13.9579 14.9789H14.6716C14.6854 14.9789 14.6971 14.9715 14.7031 14.9591C14.7091 14.9467 14.7075 14.9329 14.699 14.9221ZM12.8101 9.48374C12.8747 8.05458 13.9783 6.8491 15.4065 6.8491C16.8535 6.8491 17.9646 8.08498 18.005 9.53602C18.0585 11.4587 16.6325 13.5959 15.4326 14.93C15.4257 14.9377 15.4166 14.9417 15.4062 14.9415C15.3958 14.9414 15.3868 14.9372 15.3801 14.9293C14.7276 14.1633 13.9192 13.0303 13.4104 11.9445C13.0243 11.1207 12.7746 10.2695 12.8101 9.48374ZM15.4065 10.7607C14.6484 10.7607 14.0338 10.1461 14.0338 9.3879C14.0338 8.62974 14.6484 8.01514 15.4065 8.01514C16.1647 8.01514 16.7793 8.62974 16.7793 9.3879C16.7793 10.1461 16.1647 10.7607 15.4065 10.7607ZM6.43483 10.6032C6.42783 10.611 6.41872 10.615 6.40824 10.6148C6.39776 10.6146 6.38879 10.6103 6.38207 10.6023C5.76503 9.86394 5.04672 8.87502 4.5608 7.83822C4.20152 7.07162 3.96912 6.2799 4.00216 5.54958C4.06204 4.22502 5.0844 3.1073 6.40808 3.1073C7.7492 3.1073 8.77848 4.25326 8.81592 5.5981C8.86552 7.37878 7.54832 9.3609 6.43483 10.6032ZM7.68931 5.45942C7.68931 4.75182 7.11568 4.17818 6.40808 4.17818C5.70048 4.17818 5.12683 4.75182 5.12683 5.45942C5.12683 6.16702 5.70048 6.74066 6.40808 6.74066C7.11568 6.74066 7.68931 6.16702 7.68931 5.45942ZM7.65672 13.1268C7.65628 13.1279 7.65584 13.1289 7.65527 13.1299C7.56564 13.3025 7.44524 13.4405 7.28056 13.5365C7.10863 13.6369 6.86536 13.6927 6.6606 13.6882C6.66036 13.6882 6.6602 13.6882 6.65996 13.6882C6.35772 13.676 6.13955 13.6765 5.8366 13.7096C4.98327 13.8028 4.78316 13.9303 4.18472 14.5291C3.57664 15.1375 3.07647 16.0841 2.67707 16.8734C2.67099 16.8855 2.65939 16.8926 2.64591 16.8926H2.01571C2.00431 16.8926 1.99451 16.8877 1.98771 16.8785C1.98091 16.8693 1.97899 16.8585 1.98227 16.8476L4.39735 8.78422C4.40143 8.77054 4.41267 8.76118 4.42687 8.75954C4.44107 8.75794 4.45411 8.76454 4.46115 8.77698C4.84211 9.4465 5.2874 10.0728 5.7086 10.6035C5.71712 10.6143 5.71863 10.628 5.71267 10.6404C5.70671 10.6527 5.69496 10.6601 5.68124 10.6601H5.05615C4.91147 10.6601 4.7942 10.7774 4.7942 10.9221C4.7942 11.0667 4.91147 11.184 5.05615 11.184H7.76008C7.90476 11.184 8.02204 11.0667 8.02204 10.9221C8.02204 10.7774 7.90476 10.6601 7.76008 10.6601H7.15355C7.13968 10.6601 7.1278 10.6525 7.12191 10.64C7.11603 10.6274 7.11784 10.6135 7.12672 10.6028C7.70424 9.91098 8.28636 9.07102 8.70896 8.1769C8.71488 8.16438 8.72672 8.1569 8.74052 8.1569H11.014C11.0292 8.1569 11.0422 8.16618 11.047 8.18062C11.0519 8.19506 11.0473 8.2103 11.0352 8.21954C9.371 9.49218 10.3318 9.37826 9.78968 10.6544C9.66596 10.9457 9.449 11.224 9.1834 11.41C9.18316 11.4101 9.18296 11.4103 9.18272 11.4104L8.27972 12.0121L8.2802 12.0128C8.11987 12.1164 8.00012 12.2681 7.92956 12.4446L7.65672 13.1268Z" fill="#32992A"/>
</g>
<defs>
<clipPath id="clip0_380_543">
<rect width="20" height="20" fill="white"/>
</clipPath>
</defs>
</svg>
