<svg width="11" height="8" viewBox="0 0 11 8" fill="none" xmlns="http://www.w3.org/2000/svg">
<path d="M1.66861 4.80012L7.73741 4.80012L5.903 6.63452C5.82873 6.7088 5.76981 6.79697 5.72961 6.89402C5.68941 6.99107 5.66873 7.09508 5.66873 7.20012C5.66873 7.30516 5.68941 7.40918 5.72961 7.50622C5.76981 7.60327 5.82873 7.69145 5.903 7.76572C5.97728 7.84 6.06546 7.89891 6.1625 7.93911C6.25955 7.97931 6.36356 8 6.4686 8C6.57365 8 6.67766 7.97931 6.7747 7.93911C6.87175 7.89891 6.95993 7.84 7.0342 7.76572L10.7998 4.00012L7.03421 0.23452C6.96008 0.159972 6.87195 0.100812 6.77489 0.060443C6.67782 0.020074 6.57373 -0.000707996 6.46861 -0.000708005C6.36348 -0.000708014 6.25939 0.020074 6.16232 0.060443C6.06526 0.100812 5.97713 0.159972 5.90301 0.23452C5.82865 0.30875 5.76966 0.396915 5.72941 0.493967C5.68916 0.591019 5.66844 0.695054 5.66844 0.80012C5.66844 0.905187 5.68916 1.00922 5.72941 1.10628C5.76966 1.20333 5.82865 1.29149 5.90301 1.36572L7.73741 3.20012L1.66861 3.20012C1.45643 3.20012 1.25295 3.28441 1.10292 3.43443C0.95289 3.58446 0.868605 3.78795 0.868605 4.00012C0.868605 4.21229 0.95289 4.41578 1.10292 4.56581C1.25295 4.71583 1.45643 4.80012 1.66861 4.80012Z" fill="#374F59"/>
</svg>
