<svg width="11" height="8" viewBox="0 0 11 8" fill="none" xmlns="http://www.w3.org/2000/svg">
<path d="M9.3314 3.19988H3.26259L5.097 1.36548C5.17127 1.2912 5.23019 1.20303 5.27039 1.10598C5.31059 1.00893 5.33127 0.904921 5.33127 0.799879C5.33127 0.694837 5.31059 0.590824 5.27039 0.493779C5.23019 0.396733 5.17127 0.308555 5.097 0.234279C5.02272 0.160003 4.93454 0.101085 4.8375 0.0608871C4.74045 0.0206895 4.63644 -1.56524e-09 4.5314 0C4.42635 1.56524e-09 4.32234 0.0206895 4.2253 0.0608871C4.12825 0.101085 4.04007 0.160004 3.9658 0.234279L0.200195 3.99988L3.9658 7.76548C4.03992 7.84003 4.12805 7.89919 4.22511 7.93956C4.32218 7.97993 4.42627 8.00071 4.5314 8.00071C4.63652 8.00071 4.74061 7.97993 4.83768 7.93956C4.93474 7.89919 5.02287 7.84003 5.097 7.76548C5.17135 7.69125 5.23034 7.60309 5.27059 7.50603C5.31084 7.40898 5.33156 7.30495 5.33156 7.19988C5.33156 7.09481 5.31084 6.99078 5.27059 6.89372C5.23034 6.79667 5.17135 6.70851 5.097 6.63428L3.26259 4.79988H9.3314C9.54357 4.79988 9.74705 4.71559 9.89708 4.56556C10.0471 4.41553 10.1314 4.21205 10.1314 3.99988C10.1314 3.78771 10.0471 3.58422 9.89708 3.43419C9.74705 3.28416 9.54357 3.19988 9.3314 3.19988Z" fill="#FFFFFF"/>
</svg>