<svg width="18" height="19" viewBox="0 0 18 19" fill="none" xmlns="http://www.w3.org/2000/svg">
<g clip-path="url(#clip0_273_4578)">
<path d="M2.88949 7.48678C1.51893 7.74788 0.527344 8.94618 0.527344 10.3414C0.527344 12.0162 1.90111 13.2505 3.43213 13.2505C3.84912 13.2505 4.27648 13.1428 4.65862 12.977C7.29693 11.8157 9 9.20536 9 6.32279C9 9.20539 10.7031 11.8157 13.3414 12.977C13.7235 13.1428 14.1509 13.2506 14.5679 13.2506C16.099 13.2506 17.4727 12.0164 17.4727 10.3414C17.4727 8.94622 16.4811 7.74792 15.1105 7.48685L9 6.32279L2.88949 7.48678Z" fill="#F0EC00"/>
<path d="M12.7046 14.0918V13.8726H5.29541V14.0918C5.29541 14.5218 5.3698 14.9381 5.50719 15.3271H12.4928C12.6302 14.9381 12.7046 14.5218 12.7046 14.0918Z" fill="#F0EC00"/>
<path d="M6.93701 12.8178H11.0631C10.2201 12.1417 9.52096 11.3111 9.00005 10.3774C8.47914 11.3111 7.78002 12.1417 6.93701 12.8178Z" fill="#F0EC00"/>
<path d="M7.06226 2.67448C5.93764 3.36752 5.25962 4.63712 5.29541 5.95488L9 5.24915L12.7046 5.95484C12.7404 4.63712 12.0624 3.36748 10.9377 2.67445C11.4665 1.97361 12.292 1.55469 13.1938 1.55469H13.2363V0.5H13.1938C12.4716 0.5 11.7652 0.700672 11.1509 1.08032C10.6678 1.37891 10.2587 1.77832 9.94869 2.2493C9.64578 2.16901 9.32783 2.12598 9 2.12598C8.67217 2.12598 8.35421 2.16901 8.05131 2.2493C7.74134 1.77832 7.33222 1.37894 6.84911 1.08036C6.23479 0.700672 5.52836 0.5 4.80618 0.5H4.76367V1.55469H4.80618C5.70797 1.55469 6.53347 1.97361 7.06226 2.67448Z" fill="#F0EC00"/>
<path d="M6.08691 16.3818C6.52436 16.9383 7.12237 17.3709 7.82859 17.6063C8.21383 17.7347 8.47269 18.0939 8.47269 18.5H9.52737C9.52737 18.0939 9.78623 17.7347 10.1715 17.6063C10.8777 17.3709 11.4757 16.9383 11.9131 16.3818H6.08691Z" fill="#F0EC00"/>
</g>
<defs>
<clipPath id="clip0_273_4578">
<rect width="18" height="18" fill="white" transform="translate(0 0.5)"/>
</clipPath>
</defs>
</svg>
