<svg width="15" height="15" viewBox="0 0 15 15" fill="none" xmlns="http://www.w3.org/2000/svg">
<path d="M14.778 0.777873V4.11121C14.778 4.28802 14.7078 4.45759 14.5827 4.58261C14.4577 4.70763 14.2881 4.77787 14.1113 4.77787C13.9345 4.77787 13.7649 4.70763 13.6399 4.58261C13.5149 4.45759 13.4447 4.28802 13.4447 4.11121V1.44454H10.778C10.6012 1.44454 10.4316 1.3743 10.3066 1.24928C10.1816 1.12425 10.1113 0.954684 10.1113 0.777873C10.1113 0.601062 10.1816 0.431493 10.3066 0.306468C10.4316 0.181444 10.6012 0.111206 10.778 0.111206H14.1113C14.2881 0.111206 14.4577 0.181444 14.5827 0.306468C14.7078 0.431493 14.778 0.601062 14.778 0.777873ZM4.11133 13.4445H1.44466V10.7779C1.44466 10.6011 1.37442 10.4315 1.2494 10.3065C1.12437 10.1814 0.954806 10.1112 0.777995 10.1112C0.601184 10.1112 0.431615 10.1814 0.30659 10.3065C0.181566 10.4315 0.111328 10.6011 0.111328 10.7779V14.1112C0.111328 14.288 0.181566 14.4576 0.30659 14.5826C0.431615 14.7076 0.601184 14.7779 0.777995 14.7779H4.11133C4.28814 14.7779 4.45771 14.7076 4.58273 14.5826C4.70776 14.4576 4.778 14.288 4.778 14.1112C4.778 13.9344 4.70776 13.7648 4.58273 13.6398C4.45771 13.5148 4.28814 13.4445 4.11133 13.4445ZM14.1113 10.1112C13.9345 10.1112 13.7649 10.1814 13.6399 10.3065C13.5149 10.4315 13.4447 10.6011 13.4447 10.7779V13.4445H10.778C10.6012 13.4445 10.4316 13.5148 10.3066 13.6398C10.1816 13.7648 10.1113 13.9344 10.1113 14.1112C10.1113 14.288 10.1816 14.4576 10.3066 14.5826C10.4316 14.7076 10.6012 14.7779 10.778 14.7779H14.1113C14.2881 14.7779 14.4577 14.7076 14.5827 14.5826C14.7078 14.4576 14.778 14.288 14.778 14.1112V10.7779C14.778 10.6011 14.7078 10.4315 14.5827 10.3065C14.4577 10.1814 14.2881 10.1112 14.1113 10.1112ZM4.11133 0.111206H0.777995C0.601184 0.111206 0.431615 0.181444 0.30659 0.306468C0.181566 0.431493 0.111328 0.601062 0.111328 0.777873V4.11121C0.111328 4.28802 0.181566 4.45759 0.30659 4.58261C0.431615 4.70763 0.601184 4.77787 0.777995 4.77787C0.954806 4.77787 1.12437 4.70763 1.2494 4.58261C1.37442 4.45759 1.44466 4.28802 1.44466 4.11121V1.44454H4.11133C4.28814 1.44454 4.45771 1.3743 4.58273 1.24928C4.70776 1.12425 4.778 0.954684 4.778 0.777873C4.778 0.601062 4.70776 0.431493 4.58273 0.306468C4.45771 0.181444 4.28814 0.111206 4.11133 0.111206Z" fill="#374F59"/>
</svg>
