<svg width="18" height="19" viewBox="0 0 18 19" fill="none" xmlns="http://www.w3.org/2000/svg">
<path d="M1.5 12.3912C1.55108 12.1353 1.58233 11.8743 1.65685 11.6246C2.03545 10.354 2.87558 9.43031 4.10272 8.81056C4.911 8.4021 5.78117 8.14957 6.66397 7.93206C6.71926 7.9185 6.77455 7.90382 6.83825 7.88743C6.68561 7.6671 6.53777 7.45412 6.37972 7.22644C6.65195 7.09707 6.90736 6.97617 7.17538 6.84906C7.21625 6.9129 7.2475 6.98069 7.29677 7.03436C7.46684 7.22136 7.64112 7.40497 7.8184 7.58575C7.8815 7.64959 7.96082 7.66089 8.05818 7.63547C8.45481 7.53151 8.85384 7.4366 9.29614 7.32757C8.78533 6.99368 8.41514 6.60443 8.1327 6.11632C8.3851 5.98582 8.63449 5.85644 8.89891 5.72029C8.92836 5.76379 8.956 5.8039 8.98364 5.84458C9.2757 6.27676 9.64649 6.62308 10.1645 6.8129C10.2486 6.84397 10.3147 6.84454 10.3935 6.79313C10.736 6.57167 11.0491 6.32139 11.3207 6.0005C10.6296 5.83723 10.1056 5.48527 9.73724 4.90394C9.99204 4.76835 10.2402 4.63615 10.4956 4.5C10.5197 4.52825 10.5413 4.55141 10.5593 4.57627C10.8658 4.98868 11.2841 5.20562 11.8207 5.21297C12.4607 5.222 13.0996 5.24573 13.7227 5.39996C14.6464 5.62877 15.4661 6.03158 16.1199 6.70217C16.156 6.73946 16.1854 6.78296 16.2245 6.81685C16.5304 7.08238 16.51 7.42869 16.4901 7.77331C16.4883 7.80156 16.4565 7.83885 16.4276 7.85354C15.6512 8.24843 14.8736 8.63994 14.01 8.84672C13.9301 8.86592 13.8471 8.87609 13.7648 8.88174C13.4992 8.89982 13.2762 8.73147 13.2342 8.48628C13.1921 8.24222 13.3496 8.01455 13.611 7.96031C13.7017 7.94167 13.73 7.9106 13.7282 7.82529C13.7227 7.59253 13.7263 7.35921 13.7263 7.12871C13.1494 7.06374 12.519 7.53773 12.3748 8.13206C12.2288 8.73486 12.5671 9.50319 13.4986 9.70657C13.2342 10.2862 12.8249 10.7449 12.2498 11.067C12.0743 11.1653 11.8862 11.2432 11.7005 11.324C11.6284 11.3551 11.5996 11.3912 11.6014 11.4686C11.6074 11.6878 11.6038 11.9076 11.6038 12.1426H12.7847V12.9691H10.7264V11.5104H8.47704V12.1455H9.63868V12.9641H7.58222V11.524C7.55278 11.5127 7.54376 11.5065 7.53475 11.5065C6.6808 11.5071 5.82504 11.4749 4.9741 11.5178C3.93866 11.5698 3.2061 12.5516 3.4615 13.4753C3.62376 14.0618 4.27339 14.4872 4.86352 14.3872C4.86352 14.3482 4.86713 14.3075 4.86352 14.268C4.84129 14.0403 4.81725 13.8132 4.79441 13.5883C4.37976 13.5239 4.2151 13.2753 4.32988 12.9014C4.43084 12.5731 4.7253 12.3517 5.08888 12.3313C5.89596 12.2867 6.54859 12.8494 6.57022 13.6092C6.59546 14.5058 5.9266 15.2561 4.93083 15.4476C3.44107 15.734 1.95792 14.8188 1.58834 13.3844C1.55589 13.2556 1.52945 13.1262 1.5 12.9974C1.5 12.7957 1.5 12.5935 1.5 12.3918V12.3912Z" fill="#2A9F00"/>
<path d="M13.3521 11.3625C13.5558 11.1246 13.7823 10.91 13.9452 10.6591C14.1441 10.3524 14.2895 10.0151 14.4608 9.69194C14.4854 9.64617 14.5173 9.58686 14.5612 9.56991C15.0251 9.39364 15.4926 9.22416 15.959 9.05298C16.1771 9.58064 16.0702 10.3574 15.5221 10.8953C14.9554 11.4518 14.0816 11.6399 13.3521 11.3619V11.3625Z" fill="#2A9F00"/>
</svg>
