<svg width="18" height="19" viewBox="0 0 18 19" fill="none" xmlns="http://www.w3.org/2000/svg">
<path d="M8.57482 4.24341C8.15821 4.40664 7.8623 4.81234 7.8623 5.28611C7.8623 5.75987 8.15825 6.16554 8.57482 6.32881C8.49473 5.99412 8.45202 5.64502 8.45202 5.28611C8.45202 4.9272 8.49473 4.5781 8.57482 4.24341Z" fill="#FF6F00"/>
<path d="M6.10393 13.1459C5.00467 13.1459 4.11029 14.0402 4.11029 15.1395V16.0732H3.6C3.32796 16.0732 3.10662 15.8519 3.10662 15.5799V7.18426C3.10662 6.32778 2.40982 5.63098 1.55334 5.63098C0.696832 5.63098 0 6.32778 0 7.18426V8.26338H1.05993V7.18426C1.05993 6.91222 1.28127 6.69091 1.55331 6.69091C1.82531 6.69091 2.04666 6.91222 2.04666 7.18426V15.5798C2.04666 16.4363 2.74349 17.1331 3.59996 17.1331H4.11026H4.55087H6.1039C7.20316 17.1331 8.09754 16.2388 8.09754 15.1395C8.09757 14.0401 7.2032 13.1459 6.10393 13.1459Z" fill="#FF6F00"/>
<path d="M12.9314 1.86682C12.2633 1.86682 11.6395 2.05958 11.1123 2.39216C11.1505 2.39086 11.1887 2.38949 11.2271 2.38949C11.8355 2.38949 12.4177 2.55065 12.9313 2.85847C13.445 2.55058 14.0272 2.38949 14.6356 2.38949C14.6739 2.38949 14.7122 2.39086 14.7503 2.39216C14.2232 2.05958 13.5994 1.86682 12.9314 1.86682Z" fill="#FF6F00"/>
<path d="M12.9312 9.76527C11.2521 9.76527 9.78608 8.83641 9.01932 7.4657H8.98199H7.64893C5.69773 7.4657 4.11035 9.05311 4.11035 11.0042V12.8285C4.64568 12.366 5.34272 12.086 6.10399 12.086C7.78773 12.086 9.15756 13.4558 9.15756 15.1396C9.15756 15.9008 8.8775 16.5979 8.41509 17.1332H9.70125V11.15H10.7612V17.1332H12.0495V13.0468H13.1095V17.1332H14.3978V9.5184C13.9381 9.67819 13.4447 9.76527 12.9312 9.76527Z" fill="#FF6F00"/>
<path d="M17.2876 4.24341C17.3677 4.5781 17.4104 4.9272 17.4104 5.28611C17.4104 5.64502 17.3677 5.99408 17.2876 6.32881C17.7042 6.16554 18.0001 5.75984 18.0001 5.28607C18.0001 4.81234 17.7042 4.40664 17.2876 4.24341Z" fill="#FF6F00"/>
<path d="M16.0895 3.97709C15.6817 3.63611 15.1695 3.44946 14.6352 3.44946C14.131 3.44946 13.6534 3.61178 13.254 3.91887L12.9309 4.16718L12.6079 3.91883C12.2085 3.61178 11.7309 3.44946 11.2267 3.44946C10.6924 3.44946 10.1802 3.63607 9.7724 3.97709C9.60457 4.38051 9.51172 4.82263 9.51172 5.2861C9.51172 7.17145 11.0456 8.70529 12.9309 8.70529C14.8163 8.70529 16.3501 7.17142 16.3501 5.2861C16.3501 4.8226 16.2573 4.38047 16.0895 3.97709ZM11.5456 6.19267C11.253 6.19267 11.0157 5.9554 11.0157 5.66272C11.0157 5.37005 11.253 5.13278 11.5456 5.13278C11.8383 5.13278 12.0756 5.37005 12.0756 5.66272C12.0756 5.9554 11.8384 6.19267 11.5456 6.19267ZM14.3162 6.19267C14.0235 6.19267 13.7863 5.9554 13.7863 5.66272C13.7863 5.37005 14.0235 5.13278 14.3162 5.13278C14.6089 5.13278 14.8462 5.37005 14.8462 5.66272C14.8462 5.9554 14.609 6.19267 14.3162 6.19267Z" fill="#FF6F00"/>
</svg>
