<svg width="12" height="12" viewBox="0 0 12 12" fill="none" xmlns="http://www.w3.org/2000/svg">
<g clip-path="url(#clip0_380_547)">
<path d="M9.07364 11.9916L8.41073 11.3287L10.1887 9.55081H2.8125C1.26169 9.55081 0 8.28913 0 6.73831V5.47269H0.9375V6.73831C0.9375 7.77219 1.77863 8.61331 2.8125 8.61331H10.1887L8.41073 6.83542L9.07364 6.17249L11.9832 9.08206L9.07364 11.9916ZM12 6.50394H11.0625V5.26175C11.0625 4.22788 10.2214 3.38675 9.1875 3.38675H1.81134L3.58927 5.16467L2.92636 5.82758L0.0167813 2.918L2.92636 0.00842285L3.58927 0.671329L1.81134 2.44925H9.1875C10.7383 2.44925 12 3.71094 12 5.26175V6.50394Z" fill="white"/>
</g>
<defs>
<clipPath id="clip0_380_547">
<rect width="12" height="12" fill="white"/>
</clipPath>
</defs>
</svg>
