<svg width="20" height="20" viewBox="0 0 20 20" fill="none" xmlns="http://www.w3.org/2000/svg">
<path d="M18.3747 9.58867H9.64575L11.486 7.28398L12.8239 5.60781L12.8282 5.60195C12.8369 5.59085 12.8447 5.5791 12.8516 5.56679L12.8551 5.56093L12.8571 5.55742L13.0133 5.27773L13.3704 6.03906C13.3875 6.07566 13.4118 6.10851 13.4417 6.13575C13.4715 6.16299 13.5065 6.18408 13.5445 6.19781C13.5826 6.21154 13.6229 6.21764 13.6633 6.21577C13.7037 6.2139 13.7433 6.20409 13.7799 6.18691C13.8165 6.16972 13.8494 6.1455 13.8766 6.11561C13.9039 6.08573 13.925 6.05078 13.9387 6.01274C13.9524 5.97471 13.9585 5.93435 13.9566 5.89396C13.9548 5.85357 13.945 5.81394 13.9278 5.77734L13.384 4.61757L13.7891 3.89453L13.8008 3.87382L14.1176 3.31015L15.9227 6.52343L15.686 7.43085C15.6856 7.43213 15.6856 7.43349 15.686 7.43476C15.684 7.44112 15.6825 7.44766 15.6817 7.45429C15.68 7.46069 15.679 7.46723 15.6786 7.47382C15.6782 7.47994 15.6782 7.48607 15.6786 7.49218C15.6774 7.50648 15.6774 7.52085 15.6786 7.53515V7.54999C15.6789 7.55526 15.6797 7.56048 15.6809 7.56562C15.6809 7.57109 15.6829 7.57656 15.684 7.58203C15.6852 7.58749 15.684 7.58632 15.684 7.58827L15.9715 8.71796C15.9885 8.78425 16.027 8.84302 16.0811 8.88502C16.1351 8.92703 16.2015 8.94988 16.27 8.94999C16.2957 8.94997 16.3213 8.94669 16.3461 8.94023C16.3853 8.93029 16.4222 8.91272 16.4546 8.88853C16.487 8.86433 16.5143 8.83399 16.5349 8.79923C16.5555 8.76446 16.5691 8.72597 16.5749 8.68596C16.5806 8.64594 16.5784 8.60518 16.5684 8.56601L16.3375 7.65976L17.2461 7.12031L18.3747 9.58867Z" fill="#189CD9"/>
<path d="M13.131 3.81017L12.7794 4.43986L12.7673 4.46056L12.3286 5.24181L11.3864 6.42267L10.8962 4.54103C10.8814 4.48391 10.8504 4.43227 10.8071 4.39224C10.7637 4.35221 10.7098 4.32548 10.6517 4.31525L9.66025 4.14064L9.30518 3.50861L11.031 2.11993L13.131 3.81017Z" fill="#189CD9"/>
<path d="M10.9043 7.02461L8.8582 9.58867H7.17852L6.26914 7.78672C6.25101 7.75049 6.22591 7.7182 6.19528 7.6917C6.16464 7.6652 6.12908 7.645 6.09062 7.63227C6.05217 7.61954 6.01158 7.61452 5.97118 7.61751C5.93078 7.6205 5.89137 7.63143 5.85521 7.64968C5.81904 7.66793 5.78684 7.69314 5.76043 7.72386C5.73403 7.75458 5.71395 7.79021 5.70135 7.82871C5.68874 7.8672 5.68386 7.90781 5.68698 7.9482C5.6901 7.98858 5.70116 8.02796 5.71953 8.06406L6.48867 9.5875H3.81211C4.68945 8.66055 4.91953 7.28008 4.93125 7.20781C4.93764 7.16788 4.93609 7.12708 4.92671 7.08774C4.91733 7.0484 4.90029 7.01129 4.87657 6.97854C4.85285 6.94578 4.82291 6.91802 4.78845 6.89684C4.754 6.87565 4.71572 6.86146 4.67578 6.85508C4.63585 6.84869 4.59504 6.85023 4.5557 6.85962C4.51637 6.869 4.47926 6.88604 4.44651 6.90976C4.41375 6.93348 4.38599 6.96342 4.36481 6.99787C4.34362 7.03233 4.32943 7.07061 4.32305 7.11055C4.31992 7.1293 4.01055 8.96094 2.81602 9.5875H1.75195L2.5082 7.96875L6.03594 3.54688L6.04024 3.54102C6.04903 3.52998 6.05687 3.51822 6.06367 3.50586C6.06486 3.50399 6.06591 3.50203 6.0668 3.5L6.22617 3.21641L6.5832 3.97773C6.60808 4.03079 6.64757 4.07565 6.69704 4.10706C6.74651 4.13847 6.8039 4.15513 6.8625 4.15508C6.91428 4.15496 6.9652 4.14179 7.01055 4.1168C7.0559 4.09181 7.09423 4.05579 7.12198 4.01207C7.14974 3.96836 7.16603 3.91835 7.16936 3.86668C7.17268 3.815 7.16294 3.76332 7.14102 3.71641L6.59688 2.55391L7.3293 1.25L8.63281 3.56875C8.63762 3.5794 8.64337 3.5896 8.65 3.59922C8.65076 3.60086 8.65168 3.60243 8.65274 3.60391L9.12149 4.43906L8.725 5.39648C8.70869 5.43402 8.70003 5.47442 8.69952 5.51534C8.69901 5.55626 8.70667 5.59687 8.72204 5.6348C8.73741 5.67273 8.76019 5.70721 8.78905 5.73622C8.8179 5.76524 8.85226 5.78821 8.8901 5.80379C8.92794 5.81938 8.96851 5.82726 9.00943 5.82698C9.05035 5.82669 9.0908 5.81825 9.12843 5.80215C9.16605 5.78605 9.20008 5.76261 9.22854 5.7332C9.25699 5.70378 9.27929 5.66899 9.29414 5.63086L9.65274 4.76562L10.3477 4.88828L10.9043 7.02461Z" fill="#189CD9"/>
<path d="M18.8622 13.4273C18.8622 13.4297 18.8306 13.6617 17.7411 14.0566C16.986 14.3301 15.9782 14.5937 15.004 14.8484C12.4767 15.5078 11.1583 15.8863 11.1673 16.6016C11.1735 17.0949 11.7692 17.4262 13.2923 17.7828C14.4087 18.0445 14.8505 18.2402 15.0224 18.3437C14.8634 18.4191 14.4903 18.5441 13.636 18.6711C12.8306 18.7906 11.7282 18.891 10.4489 18.9609C8.77666 19.0527 6.83682 19.0891 5.33525 19.0637C6.21768 18.6051 6.61807 18.1914 6.59385 17.7637C6.5626 17.2113 5.87549 16.9871 5.36104 16.8652C3.49424 16.4277 3.07314 16.123 2.98096 16.0254C3.06807 15.9394 3.4165 15.7168 4.78994 15.4203C5.86494 15.1883 7.24814 14.9758 8.58604 14.7707C12.5634 14.1617 13.9575 13.8867 13.9845 13.1988C14.0017 12.7609 13.4935 12.4773 12.1095 12.1535C10.0829 11.6781 9.77197 11.3242 9.72666 11.2512C9.7708 11.1902 10.0478 10.9055 11.5235 10.6156C11.7673 10.568 12.029 10.523 12.3048 10.4812C12.2923 10.5057 12.2802 10.5307 12.2685 10.5562C12.1611 10.7907 12.076 11.0348 12.0142 11.2852C12.005 11.3245 12.0037 11.3654 12.0104 11.4053C12.0171 11.4452 12.0315 11.4833 12.053 11.5176C12.0744 11.5519 12.1024 11.5816 12.1354 11.6051C12.1683 11.6285 12.2056 11.6453 12.245 11.6543C12.2678 11.6597 12.2911 11.6625 12.3146 11.6625C12.3841 11.6623 12.4515 11.6387 12.5059 11.5954C12.5603 11.552 12.5985 11.4916 12.6142 11.4238C12.6974 11.0625 12.897 10.5832 13.1146 10.3738C13.7876 10.2957 14.5087 10.2371 15.2239 10.2047H16.0192C15.1989 10.6441 14.8274 11.0441 14.8509 11.4566C14.8821 12.0094 15.5696 12.2336 16.0845 12.3551C17.0903 12.5894 17.8423 12.8238 18.32 13.0445C18.8282 13.2785 18.8622 13.4262 18.8622 13.4273Z" fill="#189CD9"/>
</svg>
